REM DIRINDEX 1\2,1\3,1\4,1\5
REM DIRNAME folder01,folder02,folder03,folder04,folder05
TITLE ""
FILE "P1Q_t_1541-1550.mp3" MP3
  TRACK 01 AUDIO
    TITLE "3:cjc005_5531"
    INDEX 01 00:00:00
  TRACK 02 AUDIO
    TITLE "0:"
    INDEX 01 00:01:30
  TRACK 03 AUDIO
    TITLE "4:cjc005_5532"
    INDEX 01 00:01:60
  TRACK 04 AUDIO
    TITLE "0:"
    INDEX 01 00:03:10
  TRACK 05 AUDIO
    TITLE "5:cjc005_5533"
    INDEX 01 00:03:35
  TRACK 06 AUDIO
    TITLE "0:"
    INDEX 01 00:06:47
  TRACK 07 AUDIO
    TITLE "3:cjc005_5534"
    INDEX 01 00:07:31
  TRACK 08 AUDIO
    TITLE "0:"
    INDEX 01 00:08:44
  TRACK 09 AUDIO
    TITLE "4:cjc005_5535"
    INDEX 01 00:09:02
  TRACK 10 AUDIO
    TITLE "0:"
    INDEX 01 00:10:31
  TRACK 11 AUDIO
    TITLE "5:cjc005_5536"
    INDEX 01 00:10:61
  TRACK 12 AUDIO
    TITLE "0:"
    INDEX 01 00:13:73
  TRACK 13 AUDIO
    TITLE "3:cjc005_5537"
    INDEX 01 00:14:49
  TRACK 14 AUDIO
    TITLE "0:"
    INDEX 01 00:15:64
  TRACK 15 AUDIO
    TITLE "4:cjc005_5538"
    INDEX 01 00:16:12
  TRACK 16 AUDIO
    TITLE "0:"
    INDEX 01 00:17:27
  TRACK 17 AUDIO
    TITLE "5:cjc005_5539"
    INDEX 01 00:17:49
  TRACK 18 AUDIO
    TITLE "0:"
    INDEX 01 00:21:29
  TRACK 19 AUDIO
    TITLE "3:cjc005_5540"
    INDEX 01 00:22:03
  TRACK 20 AUDIO
    TITLE "0:"
    INDEX 01 00:23:16
  TRACK 21 AUDIO
    TITLE "4:cjc005_5541"
    INDEX 01 00:23:42
  TRACK 22 AUDIO
    TITLE "0:"
    INDEX 01 00:24:71
  TRACK 23 AUDIO
    TITLE "5:cjc005_5542"
    INDEX 01 00:25:17
  TRACK 24 AUDIO
    TITLE "0:"
    INDEX 01 00:29:25
  TRACK 25 AUDIO
    TITLE "3:cjc005_5543"
    INDEX 01 00:30:08
  TRACK 26 AUDIO
    TITLE "0:"
    INDEX 01 00:31:39
  TRACK 27 AUDIO
    TITLE "4:cjc005_5544"
    INDEX 01 00:31:67
  TRACK 28 AUDIO
    TITLE "0:"
    INDEX 01 00:32:70
  TRACK 29 AUDIO
    TITLE "5:cjc005_5545"
    INDEX 01 00:33:21
  TRACK 30 AUDIO
    TITLE "0:"
    INDEX 01 00:36:74
  TRACK 31 AUDIO
    TITLE "3:cjc005_5546"
    INDEX 01 00:37:52
  TRACK 32 AUDIO
    TITLE "0:"
    INDEX 01 00:38:73
  TRACK 33 AUDIO
    TITLE "4:cjc005_5547"
    INDEX 01 00:39:27
  TRACK 34 AUDIO
    TITLE "0:"
    INDEX 01 00:41:02
  TRACK 35 AUDIO
    TITLE "5:cjc005_5548"
    INDEX 01 00:41:26
  TRACK 36 AUDIO
    TITLE "0:"
    INDEX 01 00:44:11
  TRACK 37 AUDIO
    TITLE "3:cjc005_5549"
    INDEX 01 00:44:56
  TRACK 38 AUDIO
    TITLE "0:"
    INDEX 01 00:45:73
  TRACK 39 AUDIO
    TITLE "4:cjc005_5550"
    INDEX 01 00:46:27
  TRACK 40 AUDIO
    TITLE "0:"
    INDEX 01 00:47:32
  TRACK 41 AUDIO
    TITLE "5:cjc005_5551"
    INDEX 01 00:47:54
  TRACK 42 AUDIO
    TITLE "0:"
    INDEX 01 00:51:22
  TRACK 43 AUDIO
    TITLE "3:cjc005_5552"
    INDEX 01 00:51:73
  TRACK 44 AUDIO
    TITLE "0:"
    INDEX 01 00:53:27
  TRACK 45 AUDIO
    TITLE "4:cjc005_5553"
    INDEX 01 00:53:62
  TRACK 46 AUDIO
    TITLE "0:"
    INDEX 01 00:55:38
  TRACK 47 AUDIO
    TITLE "5:cjc005_5554"
    INDEX 01 00:55:63
  TRACK 48 AUDIO
    TITLE "0:"
    INDEX 01 01:00:25
  TRACK 49 AUDIO
    TITLE "3:cjc005_5555"
    INDEX 01 01:01:01
  TRACK 50 AUDIO
    TITLE "0:"
    INDEX 01 01:02:14
  TRACK 51 AUDIO
    TITLE "4:cjc005_5556"
    INDEX 01 01:02:44
  TRACK 52 AUDIO
    TITLE "0:"
    INDEX 01 01:03:65
  TRACK 53 AUDIO
    TITLE "5:cjc005_5557"
    INDEX 01 01:04:11
  TRACK 54 AUDIO
    TITLE "0:"
    INDEX 01 01:08:05
  TRACK 55 AUDIO
    TITLE "3:cjc005_5558"
    INDEX 01 01:08:56
  TRACK 56 AUDIO
    TITLE "0:"
    INDEX 01 01:09:73
  TRACK 57 AUDIO
    TITLE "4:cjc005_5559"
    INDEX 01 01:10:22
  TRACK 58 AUDIO
    TITLE "0:"
    INDEX 01 01:11:23
  TRACK 59 AUDIO
    TITLE "5:cjc005_5560"
    INDEX 01 01:11:47
  TRACK 60 AUDIO
    TITLE "0:"
    INDEX 01 01:15:07
